# xmcd
#
# Track frame offsets: 
#        150
#        18030
#        35125
#        44595
#        63880
#        79110
#        95357
#        114930
#        124047
#        148950
#
# Disc length: 2178 seconds
#
# Revision: 7
# Processed by: cddbd v1.5.2PL0 Copyright (c) Steve Scherf et al.
# Submitted via: ExactAudioCopy v1.0b1
#
DISCID=8108800a
DTITLE=Bill Withers - Greatest Hits
DYEAR=1981
DGENRE=R&B
TTITLE0=Just The Two Of Us
TTITLE1=Use Me
TTITLE2=Ain't No Sunshine
TTITLE3=Lovely Day
TTITLE4=I Want To Spend The Night
TTITLE5=Soul Shadows
TTITLE6=Lean On Me
TTITLE7=Grandma's Hands
TTITLE8=Hello Like Before
TTITLE9=Who Is He What Is He To You
EXTD=YEAR: 1981
EXTT0=
EXTT1=
EXTT2=
EXTT3=
EXTT4=
EXTT5=
EXTT6=
EXTT7=
EXTT8=
EXTT9=
PLAYORDER=
